<?xml version="1.0" encoding="UTF-8" standalone="no"?>
<svg
   width="456"
   height="456"
   viewBox="0 0 456 456"
   version="1.1"
   xml:space="preserve"
   style="fill-rule:evenodd;clip-rule:evenodd;stroke-linejoin:round;stroke-miterlimit:2;"
   id="svg24"
   sodipodi:docname="appiconfg.svg"
   inkscape:version="1.2 (dc2aedaf03, 2022-05-15)"
   xmlns:inkscape="http://www.inkscape.org/namespaces/inkscape"
   xmlns:sodipodi="http://sodipodi.sourceforge.net/DTD/sodipodi-0.dtd"
   xmlns="http://www.w3.org/2000/svg"
   xmlns:svg="http://www.w3.org/2000/svg"><defs
   id="defs28" /><sodipodi:namedview
   id="namedview26"
   pagecolor="#ffffff"
   bordercolor="#000000"
   borderopacity="0.25"
   inkscape:showpageshadow="2"
   inkscape:pageopacity="0.0"
   inkscape:pagecheckerboard="0"
   inkscape:deskcolor="#d1d1d1"
   showgrid="false"
   inkscape:zoom="0.51754386"
   inkscape:cx="58.932203"
   inkscape:cy="228.9661"
   inkscape:window-width="1368"
   inkscape:window-height="842"
   inkscape:window-x="-6"
   inkscape:window-y="-6"
   inkscape:window-maximized="1"
   inkscape:current-layer="svg24" />
    
    
    
    
<g
   id="g2409"
   style="fill:#cf2c6f;fill-opacity:1"
   transform="matrix(1.5174215,0,0,1.4616074,-414.57991,81.423557)"><path
     id="path186"
     style="fill:#cf2c6f;fill-opacity:1;stroke-width:0.264583"
     class="UnoptimicedTransforms"
     transform="matrix(1.0457704,0,0,1.046712,73.130267,-11.027141)"
     d="m 297.15317,46.7897 c -1.46463,0.02163 -2.92068,0.115099 -4.36068,0.281057 -0.48,0.05532 -0.95795,0.118851 -1.43412,0.190262 -0.95232,0.142823 -1.89684,0.317523 -2.83052,0.524878 -0.54887,0.121898 -1.09348,0.253807 -1.63374,0.394806 -1.08053,0.281998 -2.14354,0.601698 -3.18754,0.95794 -1.56601,0.534363 -3.08931,1.150646 -4.56534,1.843959 -0.49201,0.231104 -0.97844,0.470665 -1.45976,0.71871 -0.48133,0.248045 -0.9573,0.504582 -1.42758,0.769209 -0.47029,0.264626 -0.93499,0.537329 -1.39389,0.818176 -1.37671,0.842542 -2.70143,1.757618 -3.96947,2.739669 -0.42268,0.32735 -0.83915,0.661716 -1.24907,1.003847 -1.22974,1.026394 -2.40125,2.118745 -3.50986,3.271688 -0.36954,0.384314 -0.73227,0.775541 -1.08766,1.173196 -0.35539,0.397655 -0.70352,0.801836 -1.04441,1.212472 -0.34089,0.410637 -0.67411,0.827472 -1.00016,1.25073 -0.32605,0.423257 -0.64505,0.852957 -0.95591,1.288475 -0.31086,0.435518 -0.61383,0.876762 -0.90915,1.324182 -0.59064,0.894838 -1.15006,1.813158 -1.67649,2.75344 -0.52642,0.940282 -1.01994,1.902707 -1.47937,2.885553 -0.68915,1.474269 -1.30123,2.994654 -1.83187,4.556592 -0.17687,0.520646 -0.34477,1.045986 -0.50335,1.575653 -0.47571,1.589001 -0.86839,3.217807 -1.17313,4.881517 -0.32573,1.778282 -0.51979,4.722706 -0.5652,7.702288 -0.0114,0.744895 -0.0136,1.49182 -0.006,2.223461 0.0225,2.194926 0.13136,4.250881 0.33339,5.690512 0.14366,1.023688 0.30475,2.029778 0.48424,3.020728 0.0898,0.49547 0.18401,0.9872 0.2831,1.47516 0.19818,0.97593 0.41511,1.93744 0.65219,2.88607 0.23708,0.94862 0.49434,1.88461 0.77237,2.80955 0.13902,0.46247 0.28332,0.92204 0.43296,1.37927 0.14963,0.45723 0.30461,0.91204 0.46513,1.36448 0.32103,0.90488 0.66425,1.80072 1.03033,2.68917 0.36608,0.88844 0.75494,1.76966 1.16811,2.6453 0.20659,0.43781 0.41937,0.87409 0.63811,1.30939 0.21875,0.43529 0.44366,0.86953 0.67482,1.30275 0.92464,1.7329 1.94946,3.4508 3.08295,5.1687 0.56674,0.85895 1.16056,1.71784 1.78259,2.57848 0.62203,0.86063 1.27218,1.72325 1.95154,2.58919 0.33968,0.43298 0.687,0.86676 1.0414,1.30174 0.3544,0.43498 0.71627,0.87093 1.08564,1.30837 1.10811,1.31232 2.28402,2.63707 3.53149,3.97969 1.6633,1.79015 3.45356,3.61249 5.37894,5.48188 0.57515,0.55843 1.37119,1.30917 2.31712,2.18776 2.83779,2.63576 7.02482,6.42161 10.64726,9.61511 3.11573,2.74679 5.70677,5.04236 7.93441,7.03611 2.22763,1.99375 4.09225,3.68569 5.75507,5.22583 0.83141,0.77006 1.61205,1.50249 2.36287,2.2153 1.50164,1.4256 2.88264,2.77382 4.30436,4.19494 0.71086,0.71056 1.43186,1.43952 2.18336,2.2051 0.95231,0.97015 1.85814,1.9053 2.72492,2.81414 0.86678,0.90884 1.69453,1.79149 2.4901,2.65601 0.79556,0.86453 1.55935,1.71067 2.298,2.54788 2.21597,2.51163 4.20801,4.93867 6.16942,7.51049 0.6538,0.85728 1.30394,1.73102 1.95808,2.62898 0.65414,0.89797 1.31192,1.82023 1.98071,2.77589 0.80199,1.14597 1.54265,2.18789 2.08933,2.94319 0.54668,0.7553 0.8998,1.2242 0.92725,1.2242 0.0137,0 0.0989,-0.10642 0.24086,-0.29788 0.14197,-0.19147 0.34067,-0.46834 0.58179,-0.81002 0.48225,-0.68337 1.13367,-1.62581 1.8379,-2.66265 1.16244,-1.71145 2.31402,-3.35303 3.4797,-4.95139 2.33136,-3.19673 4.71829,-6.21976 7.35513,-9.27744 0.6592,-0.76441 1.33394,-1.53099 2.02747,-2.30303 1.38707,-1.54409 2.84903,-3.11014 4.40996,-4.7239 0.78047,-0.80688 1.58562,-1.62554 2.41869,-2.45963 1.66614,-1.66818 3.44369,-3.3974 5.35682,-5.21358 0.95656,-0.90809 1.94688,-1.83784 2.97433,-2.79272 3.08236,-2.86464 6.49743,-5.95477 10.32745,-9.35803 2.25376,-2.00262 4.3238,-3.85685 6.23278,-5.58645 5.72694,-5.18881 10.00313,-9.25351 13.43101,-12.82201 1.14263,-1.18951 2.19093,-2.32379 3.16743,-3.42625 1.46475,-1.65368 2.76798,-3.2358 3.98455,-4.82438 0.40553,-0.52953 0.80112,-1.05959 1.19024,-1.59351 0.77823,-1.06784 1.52929,-2.1504 2.27538,-3.27067 0.35933,-0.53955 0.7091,-1.08156 1.04893,-1.62615 0.33984,-0.54459 0.66974,-1.09173 0.99011,-1.64145 0.32037,-0.54972 0.63133,-1.10233 0.93227,-1.65727 0.30095,-0.55494 0.59191,-1.11231 0.87345,-1.67257 0.28154,-0.56026 0.55344,-1.12323 0.81561,-1.68889 0.26218,-0.56567 0.51495,-1.13405 0.75779,-1.70522 1.6999,-3.99816 2.92648,-8.13225 3.68536,-12.41803 0.32524,-1.836754 0.56421,-3.701382 0.71807,-5.595121 0.1531,-1.884498 0.20361,-3.739094 0.15185,-5.56248 -0.0259,-0.911693 -0.0769,-1.815811 -0.15387,-2.711614 -0.077,-0.895803 -0.17967,-1.78365 -0.30774,-2.663155 -0.12806,-0.879505 -0.28154,-1.750369 -0.4606,-2.613167 -0.0895,-0.431399 -0.18586,-0.860819 -0.28814,-1.287965 -0.20454,-0.854293 -0.43444,-1.700191 -0.6899,-2.537165 -0.25546,-0.836973 -0.53645,-1.664869 -0.84277,-2.484115 -0.15316,-0.409623 -0.31234,-0.81705 -0.47821,-1.222165 -1.30874,-3.196558 -2.95004,-6.180218 -4.88012,-8.916801 -0.27572,-0.39094 -0.55738,-0.777132 -0.84478,-1.157893 -0.86219,-1.142284 -1.77629,-2.238356 -2.739,-3.28546 -0.64181,-0.698069 -1.3053,-1.374312 -1.98926,-2.028099 -2.05189,-1.96136 -4.28882,-3.719578 -6.68383,-5.253879 -0.39917,-0.255717 -0.80253,-0.505134 -1.21035,-0.748295 -2.03909,-1.215805 -4.18491,-2.273434 -6.42134,-3.160488 -0.44729,-0.177411 -0.89823,-0.348459 -1.35266,-0.512126 -0.45442,-0.163667 -0.91246,-0.320064 -1.37377,-0.469789 -2.30655,-0.748622 -4.69721,-1.32204 -7.15701,-1.707255 -0.68451,-0.107193 -1.65114,-0.187434 -2.75811,-0.24076 -0.55348,-0.02666 -1.1423,-0.04647 -1.74839,-0.05968 -1.2122,-0.02643 -2.4943,-0.02576 -3.70497,0.0015 -0.60534,0.01364 -1.19242,0.03364 -1.74438,0.0607 -0.55196,0.02705 -1.06842,0.06105 -1.53167,0.101507 -0.46324,0.04045 -0.87365,0.08745 -1.21286,0.141294 -0.59131,0.09385 -1.17719,0.19758 -1.75795,0.310642 -1.16151,0.226122 -2.30157,0.490473 -3.42036,0.793182 -0.55939,0.151355 -1.11382,0.312101 -1.66241,0.482541 -0.54858,0.170439 -1.09152,0.350697 -1.62922,0.54018 -0.53769,0.189484 -1.06982,0.388314 -1.59653,0.5968 -0.52672,0.208487 -1.0482,0.426481 -1.56386,0.653929 -1.54697,0.682346 -3.04399,1.449752 -4.48991,2.302015 -0.48197,0.284088 -0.95801,0.577522 -1.42858,0.880408 -0.94115,0.605771 -1.85953,1.249446 -2.75459,1.930162 -1.3426,1.021075 -2.6329,2.126267 -3.86991,3.315045 -0.37855,0.363801 -0.78884,0.774357 -1.20582,1.204821 -0.83395,0.860929 -1.69566,1.801708 -2.38902,2.608066 -0.34668,0.40318 -0.65106,0.77266 -0.88903,1.081891 -0.95187,1.236927 -1.80888,2.342241 -1.90428,2.456061 -0.0119,0.01423 -0.037,0.01075 -0.0734,-0.0087 -0.0364,-0.01942 -0.0842,-0.05509 -0.1423,-0.105078 -0.11618,-0.09998 -0.27306,-0.257815 -0.4591,-0.461627 -0.37209,-0.407623 -0.86147,-0.998217 -1.3783,-1.67359 -1.48703,-1.943163 -3.393,-4.001607 -5.40107,-5.8619 -0.80323,-0.744117 -1.62278,-1.456572 -2.4383,-2.117364 -0.40776,-0.330396 -0.81467,-0.647721 -1.21789,-0.949779 -0.35422,-0.265351 -0.75672,-0.545188 -1.19627,-0.83399 -0.8791,-0.577603 -1.90628,-1.190873 -2.99244,-1.79295 -1.08616,-0.602076 -2.23123,-1.193038 -3.34543,-1.727148 -0.5571,-0.267056 -1.10622,-0.520155 -1.63677,-0.752886 -0.53054,-0.232732 -1.04251,-0.445143 -1.52412,-0.631996 -0.48161,-0.186853 -0.93281,-0.348021 -1.34311,-0.47744 -0.47983,-0.151351 -0.96153,-0.294892 -1.44467,-0.430512 -0.48315,-0.13562 -0.96782,-0.263213 -1.45373,-0.383074 -0.48591,-0.11986 -0.97315,-0.232073 -1.46127,-0.336146 -0.48812,-0.104074 -0.97702,-0.199939 -1.4668,-0.288198 -0.48979,-0.08826 -0.98043,-0.168854 -1.47133,-0.241271 -2.45449,-0.362082 -4.9196,-0.525735 -7.36066,-0.489682 z" /></g><path
   d="m 185.6816,208.85247 82.22485,64.61284 -39.62955,37.46263 V 177.07211 l 39.62955,35.77899 -82.22485,62.9291"
   stroke="#ffffff"
   stroke-width="12.6254"
   fill="none"
   id="path1949"
   style="fill:none;fill-opacity:1" /></svg>
